<?xml version="1.0" encoding="UTF-8"?>
<!DOCTYPE svg PUBLIC "-//W3C//DTD SVG 1.1//EN" "http://www.w3.org/Graphics/SVG/1.1/DTD/svg11.dtd">
<svg xmlns="http://www.w3.org/2000/svg" version="1.1" width="512px" height="512px" style="shape-rendering:geometricPrecision; text-rendering:geometricPrecision; image-rendering:optimizeQuality; fill-rule:evenodd; clip-rule:evenodd" xmlns:xlink="http://www.w3.org/1999/xlink">
<g><path style="opacity:0.999" fill="#000000" d="M 57.5,-0.5 C 189.5,-0.5 321.5,-0.5 453.5,-0.5C 485.167,6.5 504.5,25.8333 511.5,57.5C 511.5,189.5 511.5,321.5 511.5,453.5C 504.5,485.167 485.167,504.5 453.5,511.5C 321.5,511.5 189.5,511.5 57.5,511.5C 26.5,503.833 7.16667,484.5 -0.5,453.5C -0.5,321.5 -0.5,189.5 -0.5,57.5C 6.5,25.8333 25.8333,6.5 57.5,-0.5 Z"/></g>
<g><path style="opacity:1" fill="#fefefe" d="M 235.5,79.5 C 310.617,75.1384 368.117,104.472 408,167.5C 439.25,226.121 439.25,284.788 408,343.5C 388.741,376.093 361.908,400.259 327.5,416C 315.355,420.51 307.522,416.677 304,404.5C 303.95,385.115 303.283,365.782 302,346.5C 298.722,336.718 293.222,328.384 285.5,321.5C 315.431,319.453 338.931,306.119 356,281.5C 372.634,250.341 371.134,220.174 351.5,191C 354.945,175.792 353.779,160.959 348,146.5C 346.147,144.408 343.814,143.408 341,143.5C 327.679,145.934 315.845,151.434 305.5,160C 272.164,159.341 238.831,159.341 205.5,160C 194.167,150.497 181.167,145.163 166.5,144C 164.333,144.833 162.833,146.333 162,148.5C 157.124,162.428 156.291,176.595 159.5,191C 140.273,219.352 138.44,248.852 154,279.5C 170.361,305.523 194.028,319.189 225,320.5C 225.667,321.167 225.667,321.833 225,322.5C 215.832,330.147 210.332,339.814 208.5,351.5C 186.431,353.298 169.098,345.131 156.5,327C 149.399,321.633 141.399,319.3 132.5,320C 126.741,323.892 126.074,328.559 130.5,334C 134.975,334.877 139.308,336.211 143.5,338C 147.699,342.899 151.532,348.066 155,353.5C 169.063,368.946 186.563,376.279 207.5,375.5C 207.906,386.564 207.406,397.564 206,408.5C 202.111,416.028 195.944,419.195 187.5,418C 123.709,388.979 87.8758,339.479 80,269.5C 76.916,201.173 103.083,147.34 158.5,108C 182.232,93.0366 207.898,83.5366 235.5,79.5 Z"/></g>
</svg>
