<?xml version="1.0" encoding="UTF-8"?>
<!DOCTYPE svg PUBLIC "-//W3C//DTD SVG 1.1//EN" "http://www.w3.org/Graphics/SVG/1.1/DTD/svg11.dtd">
<svg xmlns="http://www.w3.org/2000/svg" version="1.1" width="512px" height="512px" style="shape-rendering:geometricPrecision; text-rendering:geometricPrecision; image-rendering:optimizeQuality; fill-rule:evenodd; clip-rule:evenodd" xmlns:xlink="http://www.w3.org/1999/xlink">
<g><path style="opacity:0.989" fill="#4887b9" d="M 226.5,-0.5 C 234.167,-0.5 241.833,-0.5 249.5,-0.5C 236.913,14.9874 224.079,30.3207 211,45.5C 210.506,47.1341 210.34,48.8008 210.5,50.5C 207.877,46.2092 204.544,42.5425 200.5,39.5C 196.909,36.1942 192.575,34.8609 187.5,35.5C 183.021,35.0856 179.021,36.0856 175.5,38.5C 164.888,44.8017 160.721,54.135 163,66.5C 169.719,84.2765 181.886,89.6098 199.5,82.5C 198.025,84.4095 196.025,85.5762 193.5,86C 188.167,86.3333 182.833,86.6667 177.5,87C 168.488,95.3466 160.154,104.347 152.5,114C 164.495,114.5 176.495,114.667 188.5,114.5C 188.5,114.833 188.5,115.167 188.5,115.5C 169.833,115.5 151.167,115.5 132.5,115.5C 132.333,95.4972 132.5,75.4972 133,55.5C 135.474,29.3526 149.64,13.5193 175.5,8C 192.434,3.89376 209.434,1.06042 226.5,-0.5 Z"/></g>
<g><path style="opacity:0.997" fill="#4280b1" d="M 249.5,-0.5 C 260.5,-0.5 271.5,-0.5 282.5,-0.5C 289.411,0.436296 296.411,1.4363 303.5,2.5C 272.301,39.6973 240.968,76.8639 209.5,114C 202.508,114.5 195.508,114.666 188.5,114.5C 176.495,114.667 164.495,114.5 152.5,114C 160.154,104.347 168.488,95.3466 177.5,87C 182.833,86.6667 188.167,86.3333 193.5,86C 196.025,85.5762 198.025,84.4095 199.5,82.5C 210.203,74.3968 213.869,63.7301 210.5,50.5C 210.34,48.8008 210.506,47.1341 211,45.5C 224.079,30.3207 236.913,14.9874 249.5,-0.5 Z"/></g>
<g><path style="opacity:0.995" fill="#3874a4" d="M 351.5,18.5 C 358.876,23.9111 364.876,30.5777 369.5,38.5C 368.928,40.2554 368.094,41.9221 367,43.5C 309.159,111.198 251.325,178.865 193.5,246.5C 152.834,250.668 128.001,272.668 119,312.5C 118.5,334.497 118.333,356.497 118.5,378.5C 101.497,378.667 84.4967,378.5 67.5,378C 61.0116,377.384 55.0116,375.55 49.5,372.5C 150.157,254.54 250.823,136.54 351.5,18.5 Z"/></g>
<g><path style="opacity:1" fill="#93b7d5" d="M 200.5,39.5 C 192.304,35.9006 183.97,35.5672 175.5,38.5C 179.021,36.0856 183.021,35.0856 187.5,35.5C 192.575,34.8609 196.909,36.1942 200.5,39.5 Z"/></g>
<g><path style="opacity:1" fill="#fcfdfd" d="M 200.5,39.5 C 204.544,42.5425 207.877,46.2092 210.5,50.5C 213.869,63.7301 210.203,74.3968 199.5,82.5C 181.886,89.6098 169.719,84.2765 163,66.5C 160.721,54.135 164.888,44.8017 175.5,38.5C 183.97,35.5672 192.304,35.9006 200.5,39.5 Z"/></g>
<g><path style="opacity:0.997" fill="#356f9f" d="M 369.5,38.5 C 373.256,44.5901 375.756,51.2568 377,58.5C 377.5,68.4944 377.666,78.4944 377.5,88.5C 332.51,141.126 287.51,193.793 242.5,246.5C 226.167,246.5 209.833,246.5 193.5,246.5C 251.325,178.865 309.159,111.198 367,43.5C 368.094,41.9221 368.928,40.2554 369.5,38.5 Z"/></g>
<g><path style="opacity:0.991" fill="#306998" d="M 377.5,88.5 C 377.667,123.502 377.5,158.502 377,193.5C 371.7,222.132 354.867,239.632 326.5,246C 298.502,246.5 270.502,246.667 242.5,246.5C 287.51,193.793 332.51,141.126 377.5,88.5 Z"/></g>
<g><path style="opacity:0.993" fill="#4a8abd" d="M 90.5,129.5 C 61.4707,163.525 32.4707,197.525 3.5,231.5C 5.1754,209.618 10.3421,188.618 19,168.5C 35.1858,141.818 59.0191,128.818 90.5,129.5 Z"/></g>
<g><path style="opacity:0.994" fill="#4685b8" d="M 90.5,129.5 C 106.5,129.5 122.5,129.5 138.5,129.5C 137.852,131.086 137.352,132.753 137,134.5C 94.6667,184.167 52.3333,233.833 10,283.5C 8.54905,285.464 6.71572,286.797 4.5,287.5C 1.26592,268.727 0.932589,250.06 3.5,231.5C 32.4707,197.525 61.4707,163.525 90.5,129.5 Z"/></g>
<g><path style="opacity:0.996" fill="#4280b1" d="M 138.5,129.5 C 156.833,129.5 175.167,129.5 193.5,129.5C 194.501,130.789 194.334,132.122 193,133.5C 134.623,201.706 76.4564,270.039 18.5,338.5C 15.6755,333.548 13.5088,328.214 12,322.5C 9.02137,310.921 6.52137,299.254 4.5,287.5C 6.71572,286.797 8.54905,285.464 10,283.5C 52.3333,233.833 94.6667,184.167 137,134.5C 137.352,132.753 137.852,131.086 138.5,129.5 Z"/></g>
<g><path style="opacity:0.996" fill="#3d79aa" d="M 303.5,2.5 C 321.096,3.25414 337.096,8.58747 351.5,18.5C 250.823,136.54 150.157,254.54 49.5,372.5C 34.5914,365.358 24.2581,354.024 18.5,338.5C 76.4564,270.039 134.623,201.706 193,133.5C 194.334,132.122 194.501,130.789 193.5,129.5C 213.833,129.5 234.167,129.5 254.5,129.5C 254.5,124.833 254.5,120.167 254.5,115.5C 232.5,115.5 210.5,115.5 188.5,115.5C 188.5,115.167 188.5,114.833 188.5,114.5C 195.508,114.666 202.508,114.5 209.5,114C 240.968,76.8639 272.301,39.6973 303.5,2.5 Z"/></g>
<g><path style="opacity:0.992" fill="#ffe66f" d="M 480.5,149.5 C 449.117,171.947 417.617,194.28 386,216.5C 385.601,216.272 385.435,215.938 385.5,215.5C 387.836,208.99 389.669,202.323 391,195.5C 391.5,173.503 391.667,151.503 391.5,129.5C 411.874,129.073 432.207,129.573 452.5,131C 464.165,133.865 473.499,140.032 480.5,149.5 Z"/></g>
<g><path style="opacity:0.995" fill="#ffe366" d="M 480.5,149.5 C 484.9,154.619 488.567,160.286 491.5,166.5C 490.409,168.745 488.742,170.578 486.5,172C 368.603,256.078 250.603,339.911 132.5,423.5C 132.5,415.833 132.5,408.167 132.5,400.5C 133.131,398.552 134.131,396.719 135.5,395C 198.567,350.145 261.567,305.311 324.5,260.5C 352.516,255.805 372.85,240.805 385.5,215.5C 385.435,215.938 385.601,216.272 386,216.5C 417.617,194.28 449.117,171.947 480.5,149.5 Z"/></g>
<g><path style="opacity:0.998" fill="#ffe160" d="M 491.5,166.5 C 494.634,173.568 496.967,180.901 498.5,188.5C 497.577,187.697 496.577,187.53 495.5,188C 374.603,274.411 253.603,360.577 132.5,446.5C 132.5,438.833 132.5,431.167 132.5,423.5C 250.603,339.911 368.603,256.078 486.5,172C 488.742,170.578 490.409,168.745 491.5,166.5 Z"/></g>
<g><path style="opacity:0.998" fill="#ffde58" d="M 498.5,188.5 C 502.297,200.811 504.963,213.477 506.5,226.5C 435.286,276.933 364.286,327.6 293.5,378.5C 280.833,378.5 268.167,378.5 255.5,378.5C 255.5,383.5 255.5,388.5 255.5,393.5C 260.833,393.5 266.167,393.5 271.5,393.5C 231.38,422.4 191.047,451.067 150.5,479.5C 140.603,470.711 134.603,459.711 132.5,446.5C 253.603,360.577 374.603,274.411 495.5,188C 496.577,187.53 497.577,187.697 498.5,188.5 Z"/></g>
<g><path style="opacity:0.995" fill="#ffda4e" d="M 506.5,226.5 C 507.98,234.075 508.647,241.741 508.5,249.5C 507.294,252.298 505.294,254.465 502.5,256C 445.081,296.364 388.081,337.198 331.5,378.5C 318.833,378.5 306.167,378.5 293.5,378.5C 364.286,327.6 435.286,276.933 506.5,226.5 Z"/></g>
<g><path style="opacity:0.994" fill="#ffd847" d="M 508.5,249.5 C 509.481,258.67 509.481,268.003 508.5,277.5C 507.778,277.082 507.278,276.416 507,275.5C 458.835,309.487 411.002,343.821 363.5,378.5C 352.833,378.5 342.167,378.5 331.5,378.5C 388.081,337.198 445.081,296.364 502.5,256C 505.294,254.465 507.294,252.298 508.5,249.5 Z"/></g>
<g><path style="opacity:0.992" fill="#ffe772" d="M 290.5,261.5 C 237.871,299.154 185.204,336.821 132.5,374.5C 132.333,355.164 132.5,335.83 133,316.5C 138.194,286.974 155.36,268.807 184.5,262C 219.832,261.5 255.165,261.333 290.5,261.5 Z"/></g>
<g><path style="opacity:0.995" fill="#ffe56d" d="M 324.5,260.5 C 261.567,305.311 198.567,350.145 135.5,395C 134.131,396.719 133.131,398.552 132.5,400.5C 132.5,391.833 132.5,383.167 132.5,374.5C 185.204,336.821 237.871,299.154 290.5,261.5C 301.871,261.768 313.205,261.434 324.5,260.5 Z"/></g>
<g><path style="opacity:0.992" fill="#ffd641" d="M 508.5,277.5 C 507.453,286.067 505.787,294.4 503.5,302.5C 503.103,301.475 502.437,301.308 501.5,302C 465.985,327.363 430.652,352.863 395.5,378.5C 384.833,378.5 374.167,378.5 363.5,378.5C 411.002,343.821 458.835,309.487 507,275.5C 507.278,276.416 507.778,277.082 508.5,277.5 Z"/></g>
<g><path style="opacity:0.981" fill="#ffd43b" d="M 503.5,302.5 C 499.366,321.742 492.199,339.742 482,356.5C 473.783,368.862 462.283,376.029 447.5,378C 430.17,378.5 412.837,378.667 395.5,378.5C 430.652,352.863 465.985,327.363 501.5,302C 502.437,301.308 503.103,301.475 503.5,302.5 Z"/></g>
<g><path style="opacity:0.997" fill="#ffda4e" d="M 271.5,393.5 C 283.833,393.5 296.167,393.5 308.5,393.5C 262.45,426.881 216.117,459.881 169.5,492.5C 162.29,489.399 155.957,485.066 150.5,479.5C 191.047,451.067 231.38,422.4 271.5,393.5 Z"/></g>
<g><path style="opacity:0.997" fill="#ffd847" d="M 308.5,393.5 C 319.167,393.5 329.833,393.5 340.5,393.5C 290.661,430.247 240.328,466.247 189.5,501.5C 182.426,499.259 175.759,496.259 169.5,492.5C 216.117,459.881 262.45,426.881 308.5,393.5 Z"/></g>
<g><path style="opacity:0.996" fill="#ffd642" d="M 340.5,393.5 C 351.167,393.5 361.833,393.5 372.5,393.5C 360.295,403.191 347.628,412.357 334.5,421C 332.452,422.226 332.119,423.726 333.5,425.5C 319.592,420.135 308.925,423.801 301.5,436.5C 300.442,437.6 299.608,438.934 299,440.5C 298.374,446.195 298.541,451.862 299.5,457.5C 297.892,454.79 296.725,451.79 296,448.5C 268.855,468.311 241.688,487.977 214.5,507.5C 206.049,505.971 197.716,503.971 189.5,501.5C 240.328,466.247 290.661,430.247 340.5,393.5 Z"/></g>
<g><path style="opacity:0.989" fill="#ffd43c" d="M 372.5,393.5 C 374.167,393.5 375.833,393.5 377.5,393.5C 377.667,412.17 377.5,430.836 377,449.5C 372.659,468.018 362.159,481.851 345.5,491C 322.877,501.823 299.21,508.657 274.5,511.5C 261.5,511.5 248.5,511.5 235.5,511.5C 228.561,510.361 221.561,509.028 214.5,507.5C 241.688,487.977 268.855,468.311 296,448.5C 296.725,451.79 297.892,454.79 299.5,457.5C 300.143,459.076 301.143,460.41 302.5,461.5C 312.45,473.683 324.45,475.849 338.5,468C 340.734,465.937 342.734,463.771 344.5,461.5C 346.511,459.333 347.678,456.666 348,453.5C 348.81,449.642 348.643,445.976 347.5,442.5C 345.809,434.468 341.142,428.801 333.5,425.5C 332.119,423.726 332.452,422.226 334.5,421C 347.628,412.357 360.295,403.191 372.5,393.5 Z"/></g>
<g><path style="opacity:1" fill="#fffefc" d="M 333.5,425.5 C 341.142,428.801 345.809,434.468 347.5,442.5C 347.877,449.07 346.877,455.403 344.5,461.5C 342.734,463.771 340.734,465.937 338.5,468C 324.45,475.849 312.45,473.683 302.5,461.5C 299.041,453.258 298.707,444.925 301.5,436.5C 308.925,423.801 319.592,420.135 333.5,425.5 Z"/></g>
<g><path style="opacity:1" fill="#ffefb6" d="M 301.5,436.5 C 298.707,444.925 299.041,453.258 302.5,461.5C 301.143,460.41 300.143,459.076 299.5,457.5C 298.541,451.862 298.374,446.195 299,440.5C 299.608,438.934 300.442,437.6 301.5,436.5 Z"/></g>
<g><path style="opacity:1" fill="#ffecaa" d="M 347.5,442.5 C 348.643,445.976 348.81,449.642 348,453.5C 347.678,456.666 346.511,459.333 344.5,461.5C 346.877,455.403 347.877,449.07 347.5,442.5 Z"/></g>
</svg>
