<?xml version="1.0" encoding="UTF-8"?>
<!DOCTYPE svg PUBLIC "-//W3C//DTD SVG 1.1//EN" "http://www.w3.org/Graphics/SVG/1.1/DTD/svg11.dtd">
<svg xmlns="http://www.w3.org/2000/svg" version="1.1" width="512px" height="512px" style="shape-rendering:geometricPrecision; text-rendering:geometricPrecision; image-rendering:optimizeQuality; fill-rule:evenodd; clip-rule:evenodd" xmlns:xlink="http://www.w3.org/1999/xlink">
<g><path style="opacity:0.999" fill="#000000" d="M 57.5,-0.5 C 189.5,-0.5 321.5,-0.5 453.5,-0.5C 485.167,6.5 504.5,25.8333 511.5,57.5C 511.5,189.5 511.5,321.5 511.5,453.5C 504.5,485.167 485.167,504.5 453.5,511.5C 321.5,511.5 189.5,511.5 57.5,511.5C 25.8333,504.5 6.5,485.167 -0.5,453.5C -0.5,321.5 -0.5,189.5 -0.5,57.5C 6.5,25.8333 25.8333,6.5 57.5,-0.5 Z"/></g>
<g><path style="opacity:1" fill="#fdfdfd" d="M 396.5,130.5 C 409.996,129.956 416.162,136.289 415,149.5C 398.663,221.515 382.329,293.515 366,365.5C 362.189,378.322 354.022,382.489 341.5,378C 316.303,360.638 290.97,343.471 265.5,326.5C 252.683,338.15 240.016,349.983 227.5,362C 219.568,367.324 212.402,366.491 206,359.5C 196.692,331.909 187.192,304.409 177.5,277C 152.645,269.536 127.645,262.536 102.5,256C 93.1792,249.616 93.1792,243.282 102.5,237C 200.713,201.765 298.713,166.265 396.5,130.5 Z"/></g>
<g><path style="opacity:1" fill="#030303" d="M 353.5,175.5 C 359.431,174.742 360.764,176.742 357.5,181.5C 311.521,218.978 265.688,256.644 220,294.5C 218.602,309.952 216.435,325.286 213.5,340.5C 205.342,319.534 197.842,298.2 191,276.5C 190.289,274.101 190.456,271.768 191.5,269.5C 245.563,238.14 299.563,206.807 353.5,175.5 Z"/></g>
</svg>
