<?xml version="1.0" encoding="UTF-8"?>
<!DOCTYPE svg PUBLIC "-//W3C//DTD SVG 1.1//EN" "http://www.w3.org/Graphics/SVG/1.1/DTD/svg11.dtd">
<svg xmlns="http://www.w3.org/2000/svg" version="1.1" width="512px" height="512px" style="shape-rendering:geometricPrecision; text-rendering:geometricPrecision; image-rendering:optimizeQuality; fill-rule:evenodd; clip-rule:evenodd" xmlns:xlink="http://www.w3.org/1999/xlink">
<g><path style="opacity:0.999" fill="#000000" d="M 57.5,-0.5 C 189.5,-0.5 321.5,-0.5 453.5,-0.5C 485.167,6.5 504.5,25.8333 511.5,57.5C 511.5,189.5 511.5,321.5 511.5,453.5C 504.5,485.167 485.167,504.5 453.5,511.5C 321.5,511.5 189.5,511.5 57.5,511.5C 26.5,503.833 7.16667,484.5 -0.5,453.5C -0.5,321.5 -0.5,189.5 -0.5,57.5C 6.5,25.8333 25.8333,6.5 57.5,-0.5 Z"/></g>
<g><path style="opacity:1" fill="#fdfdfd" d="M 216.5,163.5 C 232.837,163.333 249.17,163.5 265.5,164C 274.048,164.006 279.881,167.839 283,175.5C 283.333,197.5 283.667,219.5 284,241.5C 286.154,253.123 291.154,254.456 299,245.5C 316.162,224.859 329.495,201.859 339,176.5C 340.5,175 342,173.5 343.5,172C 366.217,171.042 388.884,171.376 411.5,173C 415.212,175.602 416.378,179.102 415,183.5C 412.883,189.736 410.216,195.736 407,201.5C 395.401,219.031 383.068,236.031 370,252.5C 367.018,256.797 364.851,261.463 363.5,266.5C 363.692,268.577 364.192,270.577 365,272.5C 382.516,288.34 398.182,305.673 412,324.5C 418.753,335.807 415.919,343.307 403.5,347C 384.789,347.934 366.123,347.6 347.5,346C 343.221,344.527 339.221,342.527 335.5,340C 325.47,330.304 315.803,320.304 306.5,310C 303.37,307.102 299.703,305.268 295.5,304.5C 294.228,304.57 293.062,304.903 292,305.5C 286.512,315.45 283.512,326.117 283,337.5C 281.412,342.052 278.245,344.885 273.5,346C 228.257,350.15 191.424,334.65 163,299.5C 135.835,263.533 113.502,224.533 96,182.5C 94.703,177.883 95.8697,174.05 99.5,171C 117.167,170.333 134.833,170.333 152.5,171C 157.239,172.119 161.072,174.619 164,178.5C 173.634,204.62 187.467,228.12 205.5,249C 208.939,251.997 212.439,252.163 216,249.5C 219.505,238.455 221.005,227.122 220.5,215.5C 220.444,207.139 219.944,198.805 219,190.5C 216.259,182.862 210.759,178.695 202.5,178C 201.424,176.274 201.257,174.441 202,172.5C 205.752,167.551 210.585,164.551 216.5,163.5 Z"/></g>
</svg>
